<?xml version="1.0" encoding="utf-8"?>
<!-- Generator: Adobe Illustrator 19.0.0, SVG Export Plug-In . SVG Version: 6.00 Build 0)  -->
<svg version="1.1" id="Layer_1" xmlns="http://www.w3.org/2000/svg" xmlns:xlink="http://www.w3.org/1999/xlink" x="0px" y="0px"
	 viewBox="0 0 615.4 137.7" style="enable-background:new 0 0 615.4 137.7;" xml:space="preserve">
<style type="text/css">
	.st0{fill:#FFFFFF;}
</style>
<path id="XMLID_16_" d="M409.4,105.4c7.6-1.8,15.2-1.5,22.6-4.6c3.8-1.6,7-2.7,11.2-3.1c11-1,21.7-4.5,33-5.2
	c11.7-0.8,23.5,0.1,34.7,3.5c19.1,5.8,26.7,8.4,44.2-3.3c4-2.7,9-4.9,13.4-7c2.9-1.5,5.7-1.2,8.8-1.7c0.1,0,0.2,0,0.3-0.1
	c4.5-0.8,8.1-2.4,12.7-2.7c2.6-0.2,6.5-0.1,7.4-3.3c1.2-4.3-6.2-3.2-8.8-3.6c-4.4-0.6-8.8,0.2-13.2,0.6c-3.2,0.3-6.2-0.4-9.3,0.2
	c-8.6,1.8-16.5,5.6-25.4,6.4c-17.6,1.7-28.8-10.2-42.9-18.3c-11.1-6.4-24-7.7-36.6-6.6c-12.9,1.2-24.7,6.6-37.4,8.5
	c-4.9,0.7-8.9,2.8-13.9,2.1"/>
<path id="XMLID_15_" d="M410.2,67.2c-4.5-0.7-5.4-1.2-9.7-0.1c-9.4,2.5-19.2,0.9-27.6-4.4c-4.1-2.6-7.5-5.8-11.3-8.6
	c-5.2-3.9-13.2-7.7-19.2-9.8c-14.7-5.3-25.8-9.2-41.9-7.7c-10.3,1-20.4,3.3-30.6,4.6c-7.3,0.9-14.7,0.6-20.9,5.5
	c-5,3.9-7.9,7.3-14.6,8.9c-11.8,2.8-24.9,0.6-36.4-2.4c-15.5-4.1-36.1-2.7-49.9-12.1c-4.7-3.2-6.9-7.6-12.4-9.9
	c-5.2-2.2-10.8-3-16.3-4.5c-7.6-2-13.6-6.3-21.6-4.4c-10.2,2.5-20.9,6.4-29.9,11.8c-14.2,8.4-23,24.3-33.1,37.3
	c-21.1,27.4,3.8,55.3,34.2,55.3c19.3,0,37.7-0.4,53.8-12.3c9.2-6.8,16.8-16.9,27.6-21c10.7-4.1,22-1.3,32.8,0.6
	c5.4,0.9,10.2,2.7,15.5,4c5.5,1.3,11.1,1.3,16.7,1.8c8.5,0.8,19.1,3.4,27.6,0.9c7.3-2.2,13.1-6.8,19.7-10.1
	c5.3-2.6,11.2-4.5,16.6-6.9c10.8-4.7,25.1-3.1,36.4-0.9c6.6,1.3,12.5,4.2,19,5.7c4.2,1,8,3,12.1,4.3c4.1,1.2,8.4,1.3,12.2,3.5
	c7.5,4.5,14.9,6.5,23.4,8.8c9.9,2.6,17.1,2.6,27,0.3"/>
<path id="XMLID_14_" class="st0" d="M408.5,75.5c-7,0.1-13.9,1.9-20.9,0.6c-9-1.7-16.5-6.9-23.8-12.1c-3.9-2.7-7.1-4-11.3-5.8
	c-4.6-1.9-8-5.7-12.2-8.2c-5.3-3-11.2-3.7-17.1-5c-7.6-1.6-12-0.7-19.4,0.2c-6.8,0.9-13.6-0.6-20.5,0.6c-9.9,1.6-20.2,2.2-29.1,7.4
	c-4.5,2.6-7.2,8.9-12,10.5c-5.3,1.8-11.8,0.7-17.4,1.7c-8,1.5-17-0.4-25-1.1c-12.9-1.2-24.4-4.9-37-8.1c-5.9-1.5-11.3-2.5-16.1-6.6
	c-4.2-3.6-6.7-7.2-12-9.4c-5-2.1-10-3.3-15.1-4.7c-9.5-2.6-13.9-6.3-24.4-4.4c-18.1,3.4-26.9,12.2-37.8,26.2
	C46.9,70.9,29.8,77,37.4,98.1c4,11.1,16.7,14.8,26.8,17.4c14.1,3.7,29.3,3.9,42.9-1.7c9.6-3.9,16-11.8,23.4-18.7
	c7.4-6.9,16.8-10.6,26.7-12.1c7.6-1.2,13.9,2,21.4,2.7c14.6,1.5,29.3,2.7,44,4.2c5.1,0.5,9.8-0.7,14.7-1.5c6.3-1,10.8-0.7,16.6-4
	c6.8-3.9,14.2-6,21.6-8.5c5.7-1.9,10.8-4.1,16.7-5c11.8-1.9,23.4,0.5,34.7,3.7c14.3,4,27.6,9.3,41.4,14.6c3.8,1.5,7.8,1.8,11.5,3.6
	c4,1.9,6.8,1.3,11.1,0.9c4.7-0.4,8.5,1.2,13.1,1.7c4.8,0.5,9.8-0.7,14.7-0.7c4.6,0,7.8-0.5,12.3-1.7c5.4-1.5,11.2-1.3,16.7-2.3
	c4.5-0.7,9.1-1.8,13.6-2.6c1.9-0.2,3.9-1.1,5.9-2c2.5-1.2,5-2.4,7.9-2.8c4.6-0.6,10-0.9,14.7-0.4c3.2,0.4,5.9,1.5,9,1.3
	c5-0.2,7.2,1.3,11.6,3.4c3.8,1.8,8,2.6,12.1,3.7c4.2,1.2,8.5,3.2,12.9,3.3c4,0.1,7.8-2.3,11.2-4.3c0.6-0.4,9.2-2.7,8.6-3.7
	c-2.2-3.6-9.4-0.7-12.8-0.7c-5.6,0-10.1,2.3-15.6,0.4c-4.6-1.6-7.7-5.2-12-7c-3.2-1.3-6.5-1-9.6-3.1c-12.6-8.7-25-14.6-40.7-13.2
	c-13.7,1.3-26.5,8.1-39.8,11.4C419.3,75.7,414,75.5,408.5,75.5"/>
<path id="XMLID_13_" d="M69.3,56.6c8.2-5.8,29-28.2,11.8-36.4c-5.3-2.5-12-3.3-17.7-3.9c-12.3-1.4-22.5,9.3-30.1,18
	c-4.2,4.9-8.4,10.3-11.6,16c-3.2,5.8-1.8,12.3,0.2,18.3c3.8,11.3,19,10.6,28.2,6.7c4.1-1.7,5.1-4.1,7.7-7.8
	C60.7,63.5,65.2,59.6,69.3,56.6z"/>
<path id="XMLID_12_" class="st0" d="M79.4,45c1.6-6.7,7.1-14.2-0.2-19.6c-5.4-3.9-15.1-4.7-21-1.7c-9.6,5-16.6,11.7-24.6,18.7
	c-3.8,3.4-6.1,5.6-7.1,10.9c-0.8,3.7-0.8,8.2,0.4,11.8c2.8,8.2,7.3,7,14.5,6.9c5.5-0.1,9.1-0.7,12.8-5.1"/>
<path id="XMLID_11_" d="M57,54.6C66.4,43.7,80.5,32.5,95.7,34c8.3,0.8,18.3,4,20.6,13c1.8,6.9,0.6,13.7-1,20.7
	c-1.8,8-2.9,16.9-7.6,23.9c-3.5,5.2-10.1,10.4-16.2,12.1c-7.2,2-13.8,0-20.8-1c-6.9-1-14-1.2-18.9-6.7c-4.5-5.1-7-11.2-7-18
	C44.7,69.2,51.5,61,57,54.6z"/>
<path id="XMLID_10_" class="st0" d="M108,45c-0.5-0.6-1-1.2-1.6-1.7c-2.8-2.5-5.9-5.1-9.7-5c-4.2,0.1-10.7,2.1-14.6,3.6
	c-5.6,2.2-10.7,7.1-15.1,11c-3.6,3.3-7.3,6.5-10.5,10.2c-2.4,2.8-6.2,7-7,10.6c-1.6,7.6,6.5,15.4,12.2,19.2
	c5.6,3.8,10.5,6.5,17.4,5.6c8.7-1.2,18.5-1.7,23.3-10.3c4-7.1,6.4-16.5,8.1-24.5C111.8,57.3,112.2,50.2,108,45z"/>
<path id="XMLID_9_" d="M73,81.4c0.8,1.7,1.9,3.1,3.1,3.7c2.4,1.3,4.9-0.2,7.3-0.4c2.6-0.2,4.5,1,6.3-1.4c0.8-1.1,1.4-4.9,1.5-6.4
	c0.3-4.8-3.2-8.3-8-7.7c-2.8,0.4-9,3.2-10.7,5.5C71.3,76.3,71.8,79,73,81.4z"/>
<path id="XMLID_8_" d="M36.7,57.7c1.3,1.4,3.4,2.4,6.4,2.4c2.6,0,6.6-2.5,7.5-5c0.9-2.7-1.1-6.5-0.9-9.4c-4.9-1.3-6.8,0-10.5,2.7
	C35.1,51.3,34.5,55.2,36.7,57.7z"/>
<path id="XMLID_7_" d="M153.7,63.6c0.2-4.8,2.2-11-2.1-14.5c-4.5,2.5-1.2,7.9-1,11.9c0.1,1.9-3.1,15.7-3,15.9
	C153.6,83.6,153.6,66.8,153.7,63.6z"/>
<path id="XMLID_6_" d="M183.7,66.3c0-3.3,0.8-6.5-0.1-9.7c-2.5,0.7-4.6,2.9-5.4,5.6c-1.7,5.2-1.2,12.6-1,18
	C183.9,77.9,183.6,72.6,183.7,66.3z"/>
<path id="XMLID_5_" d="M253.7,64.3c0-2-1.8-16.4-6.8-11.5c-2,2,1.5,8,1.9,10.2c1.1,5.6,0.4,11.6-0.3,17.2
	C253.9,78.2,253.8,69.4,253.7,64.3z"/>
<path id="XMLID_4_" d="M296.4,48.6c-0.9-5.6-2.4-10.6-6.9-7.3c-5.5,3.9,0.9,4,3.4,9c2,4.1,1,11.3,1.4,15.8
	C298.3,62.3,297.2,53.4,296.4,48.6z"/>
<path id="XMLID_3_" d="M269.4,73.3c4.1-2.2,3.1-10.8,0.1-13.8C262.7,52.7,267.8,70.8,269.4,73.3z"/>
<path id="XMLID_2_" d="M379.4,74.9c0-0.4,0-0.9,0-1.3c-0.7-8.1-10.1,8.2-7.8,13.9C374.9,85.1,379,79.4,379.4,74.9z"/>
</svg>
